<svg xmlns="http://www.w3.org/2000/svg" xmlns:xlink="http://www.w3.org/1999/xlink" viewBox="0 0 200 200"><defs><style>.cls-1{fill:url(#linear-gradient);}.cls-2{opacity:0.2;}.cls-3{opacity:0.7;}.cls-4{fill:url(#linear-gradient-2);}.cls-5{fill:url(#linear-gradient-3);}</style><linearGradient id="linear-gradient" x1="91.03" y1="137.01" x2="147.75" y2="89.42" gradientUnits="userSpaceOnUse"><stop offset="0" stop-color="#ee743b"/><stop offset="1" stop-color="#f7d21e"/></linearGradient><linearGradient id="linear-gradient-2" x1="43.85" y1="104.81" x2="200" y2="104.81" gradientUnits="userSpaceOnUse"><stop offset="0" stop-color="#007bc1"/><stop offset="1" stop-color="#09f"/></linearGradient><linearGradient id="linear-gradient-3" x1="16.25" y1="166.54" x2="179.81" y2="29.29" gradientUnits="userSpaceOnUse"><stop offset="0" stop-color="#017cc1"/><stop offset="1" stop-color="#09f"/></linearGradient></defs><g id="Layer_2" data-name="Layer 2"><g id="Layer_1-2" data-name="Layer 1"><path class="cls-1" d="M145.05,154.81c-14.32,7.21-20.35-1.08-20.37-1.1a15.46,15.46,0,0,1-4.25-10.57V56.86a25,25,0,0,0-25,25v58.2C107.46,165.46,133,162.73,145.05,154.81Z"/><g class="cls-2"><path class="cls-3" d="M124.68,153.72a15.24,15.24,0,0,1-2.85-4.25,28.54,28.54,0,0,1-26.4-10.12v.72c12,25.4,37.51,21.91,49.57,14C132,162.46,124.7,153.74,124.68,153.72Z"/></g><path class="cls-4" d="M174.69,36.9c-32.06-23.18-81.57-12-110.6,25C48.28,82,41.84,105.64,44.4,126.73,43.6,104.83,54.45,80.14,75,62.07c31.08-27.33,72.55-29.18,92.62-4.14,14.18,17.7,14,44.25,1.63,67.83a92.26,92.26,0,0,1-19.45,25.12,34.46,34.46,0,0,1-4.77,3h0c-8,4.75-16.81,6.69-25.3,5.07-16.82-3-23.38-17.89-24.32-19.85v7.73h0c0,.09,0,.18,0,.27a40,40,0,0,0,13.45,30c.35.33.72.64,1.08.94l.11.09c.32.27.66.53,1,.78,11,8.26,25.53,7.41,37.94.24,9.05-5.23,16.75-12.42,25.4-23l.85-1C209.9,110.29,206.74,60.08,174.69,36.9Z"/><path class="cls-5" d="M100.44,180.51C89,181.73,64.27,179,47.64,167a70.45,70.45,0,0,1-17.78-19.19c-16.22-25.84-7.69-55.38-4.59-64.3,9-29.17,31-48.28,39.47-54.52,9.6-7.06,29.11-18.5,54.22-20.46C150.16,7,167.39,19.37,175.33,24,154.13,3.49,131.27.36,117.05.07,89-1,68.55,9.93,57.65,16.47,53,19.28,28.84,34.15,13.94,62.52A112.5,112.5,0,0,0,2.57,92.45c-1.84,8.44-7.65,37.11,8.17,65.2a82.49,82.49,0,0,0,22.15,25.63,88.77,88.77,0,0,0,31.76,14.63c30.37,5.78,51.86-1.9,60.26-5.44C120.16,192.35,111,191.83,100.44,180.51Z"/></g></g></svg>